<svg xmlns="http://www.w3.org/2000/svg" xmlns:xlink="http://www.w3.org/1999/xlink" width="200" zoomAndPan="magnify" viewBox="0 0 150 149.999998" height="200" preserveAspectRatio="xMidYMid meet" version="1.0"><defs><g/><clipPath id="2dbe0d8218"><path d="M 59.039062 44 L 71 44 L 71 61 L 59.039062 61 Z M 59.039062 44 " clip-rule="nonzero"/></clipPath><clipPath id="918deac50b"><path d="M 59.039062 43 L 71 43 L 71 61 L 59.039062 61 Z M 59.039062 43 " clip-rule="nonzero"/></clipPath><clipPath id="68295ce7a9"><path d="M 79 43 L 91.289062 43 L 91.289062 61 L 79 61 Z M 79 43 " clip-rule="nonzero"/></clipPath><clipPath id="7bc3dd6395"><path d="M 69 39.390625 L 81 39.390625 L 81 64.890625 L 69 64.890625 Z M 69 39.390625 " clip-rule="nonzero"/></clipPath></defs><g clip-path="url(#2dbe0d8218)"><path fill="#03fa6e" d="M 69.214844 60.179688 C 69.035156 60.179688 68.859375 60.117188 68.722656 60.003906 L 59.703125 52.777344 C 59.507812 52.621094 59.394531 52.390625 59.394531 52.140625 C 59.394531 51.886719 59.507812 51.65625 59.699219 51.5 L 68.722656 44.273438 C 68.859375 44.160156 69.035156 44.097656 69.214844 44.097656 C 69.460938 44.097656 69.691406 44.210938 69.84375 44.410156 C 69.972656 44.578125 70.035156 44.792969 70.007812 45.007812 C 69.984375 45.222656 69.875 45.414062 69.707031 45.550781 L 61.488281 52.140625 L 69.707031 58.726562 C 69.875 58.863281 69.984375 59.054688 70.007812 59.269531 C 70.035156 59.484375 69.972656 59.695312 69.84375 59.867188 C 69.691406 60.066406 69.460938 60.179688 69.214844 60.179688 " fill-opacity="1" fill-rule="nonzero"/></g><g clip-path="url(#918deac50b)"><path fill="#004aad" d="M 69.214844 43.75 C 68.960938 43.75 68.710938 43.839844 68.511719 44 L 59.492188 51.226562 C 59.214844 51.449219 59.054688 51.78125 59.054688 52.140625 C 59.054688 52.496094 59.214844 52.828125 59.492188 53.050781 L 68.511719 60.277344 C 68.710938 60.4375 68.960938 60.527344 69.214844 60.527344 C 69.566406 60.527344 69.894531 60.363281 70.109375 60.082031 C 70.300781 59.839844 70.382812 59.535156 70.347656 59.230469 C 70.308594 58.921875 70.160156 58.644531 69.917969 58.453125 L 62.039062 52.140625 L 69.917969 45.824219 C 70.160156 45.628906 70.308594 45.355469 70.347656 45.046875 C 70.382812 44.742188 70.300781 44.4375 70.109375 44.195312 C 69.894531 43.914062 69.566406 43.75 69.214844 43.75 Z M 69.214844 44.445312 C 69.351562 44.445312 69.484375 44.503906 69.574219 44.621094 C 69.734375 44.824219 69.699219 45.121094 69.5 45.277344 L 60.9375 52.140625 L 69.5 59 C 69.699219 59.15625 69.734375 59.453125 69.574219 59.652344 C 69.484375 59.773438 69.351562 59.832031 69.214844 59.832031 C 69.117188 59.832031 69.015625 59.800781 68.933594 59.734375 L 59.910156 52.507812 C 59.800781 52.417969 59.738281 52.28125 59.738281 52.140625 C 59.738281 51.996094 59.800781 51.859375 59.910156 51.769531 L 68.933594 44.542969 C 69.015625 44.476562 69.117188 44.445312 69.214844 44.445312 " fill-opacity="1" fill-rule="nonzero"/></g><path fill="#03fa6e" d="M 81.117188 60.179688 C 80.871094 60.179688 80.640625 60.066406 80.488281 59.867188 C 80.214844 59.515625 80.273438 59.003906 80.621094 58.726562 L 88.84375 52.140625 L 80.621094 45.550781 C 80.273438 45.273438 80.214844 44.761719 80.488281 44.410156 C 80.640625 44.210938 80.871094 44.097656 81.117188 44.097656 C 81.292969 44.097656 81.46875 44.160156 81.609375 44.273438 L 90.628906 51.5 C 90.824219 51.65625 90.933594 51.886719 90.933594 52.140625 C 90.933594 52.390625 90.824219 52.621094 90.628906 52.777344 L 81.609375 60.003906 C 81.46875 60.117188 81.292969 60.179688 81.117188 60.179688 " fill-opacity="1" fill-rule="nonzero"/><g clip-path="url(#68295ce7a9)"><path fill="#004aad" d="M 81.117188 43.75 C 80.765625 43.75 80.4375 43.914062 80.222656 44.195312 C 79.832031 44.695312 79.917969 45.425781 80.410156 45.824219 L 88.292969 52.140625 L 80.410156 58.453125 C 79.917969 58.847656 79.832031 59.582031 80.222656 60.082031 C 80.4375 60.363281 80.765625 60.527344 81.117188 60.527344 C 81.371094 60.527344 81.621094 60.4375 81.820312 60.277344 L 90.839844 53.050781 C 91.117188 52.828125 91.273438 52.496094 91.273438 52.140625 C 91.273438 51.78125 91.117188 51.449219 90.839844 51.226562 L 81.820312 44 C 81.621094 43.839844 81.371094 43.75 81.117188 43.75 Z M 81.117188 44.445312 C 81.214844 44.445312 81.316406 44.476562 81.398438 44.542969 L 90.417969 51.769531 C 90.53125 51.859375 90.59375 51.996094 90.59375 52.140625 C 90.59375 52.28125 90.53125 52.417969 90.417969 52.507812 L 81.398438 59.734375 C 81.316406 59.800781 81.214844 59.832031 81.117188 59.832031 C 80.980469 59.832031 80.84375 59.773438 80.753906 59.652344 C 80.597656 59.453125 80.632812 59.15625 80.832031 59 L 89.394531 52.140625 L 80.832031 45.277344 C 80.632812 45.121094 80.597656 44.824219 80.753906 44.621094 C 80.84375 44.503906 80.980469 44.445312 81.117188 44.445312 " fill-opacity="1" fill-rule="nonzero"/></g><g clip-path="url(#7bc3dd6395)"><path fill="#03fa6e" d="M 70.683594 64.539062 C 70.582031 64.539062 70.488281 64.519531 70.394531 64.484375 C 70.195312 64.40625 70.039062 64.253906 69.953125 64.054688 C 69.867188 63.855469 69.859375 63.636719 69.9375 63.433594 L 78.746094 40.257812 C 78.867188 39.945312 79.164062 39.738281 79.492188 39.738281 C 79.589844 39.738281 79.6875 39.757812 79.78125 39.792969 C 80.191406 39.953125 80.394531 40.425781 80.238281 40.84375 L 71.429688 64.019531 C 71.308594 64.332031 71.007812 64.539062 70.683594 64.539062 " fill-opacity="1" fill-rule="nonzero"/><path fill="#004aad" d="M 79.492188 39.390625 C 79.023438 39.390625 78.597656 39.6875 78.429688 40.132812 L 69.621094 63.308594 C 69.511719 63.597656 69.519531 63.910156 69.640625 64.195312 C 69.765625 64.476562 69.988281 64.699219 70.273438 64.808594 C 70.402344 64.859375 70.542969 64.886719 70.683594 64.886719 C 71.148438 64.886719 71.578125 64.589844 71.746094 64.144531 L 80.554688 40.96875 C 80.78125 40.371094 80.488281 39.699219 79.902344 39.46875 C 79.773438 39.417969 79.632812 39.390625 79.492188 39.390625 Z M 79.492188 40.082031 C 79.546875 40.082031 79.601562 40.09375 79.65625 40.113281 C 79.894531 40.207031 80.011719 40.476562 79.921875 40.71875 L 71.109375 63.894531 C 71.039062 64.082031 70.867188 64.195312 70.683594 64.195312 C 70.628906 64.195312 70.570312 64.183594 70.515625 64.164062 C 70.28125 64.070312 70.164062 63.796875 70.253906 63.558594 L 79.0625 40.382812 C 79.136719 40.195312 79.308594 40.082031 79.492188 40.082031 " fill-opacity="1" fill-rule="nonzero"/></g><g fill="#ffffff" fill-opacity="1"><g transform="translate(31.08472, 87.266524)"><g><path d="M 7.9375 -5.558594 L 10.820312 -5.558594 L 10.820312 -3.003906 C 10.019531 -2.554688 9.117188 -2.328125 8.164062 -2.328125 C 5.625 -2.328125 3.558594 -3.785156 3.558594 -7.035156 L 3.558594 -7.070312 C 3.558594 -10.332031 5.625 -11.773438 8.164062 -11.773438 C 9.671875 -11.773438 11.0625 -11.339844 12.105469 -10.59375 L 13.164062 -12.972656 C 11.460938 -13.910156 9.898438 -14.328125 8.09375 -14.328125 C 3.714844 -14.328125 0.710938 -11.375 0.710938 -7.070312 L 0.710938 -7.035156 C 0.710938 -2.742188 3.714844 0.226562 8.09375 0.226562 C 9.863281 0.226562 12.035156 -0.277344 13.40625 -1.179688 L 13.40625 -7.746094 L 7.9375 -7.746094 Z M 7.9375 -5.558594 "/></g></g></g><g fill="#ffffff" fill-opacity="1"><g transform="translate(44.818168, 87.266524)"><g><path d="M 5.558594 0.277344 C 6.566406 0.277344 8.527344 0.0507812 10.175781 -0.242188 L 10.175781 -9.96875 L 7.433594 -9.96875 L 7.433594 -2.257812 C 6.789062 -2.136719 6.164062 -2.085938 5.679688 -2.085938 C 4.375 -2.085938 3.699219 -2.535156 3.699219 -3.804688 L 3.699219 -9.96875 L 0.9375 -9.96875 L 0.9375 -3.578125 C 0.9375 -0.589844 3.089844 0.277344 5.558594 0.277344 Z M 5.558594 0.277344 "/></g></g></g><g fill="#ffffff" fill-opacity="1"><g transform="translate(55.287474, 87.266524)"><g><path d="M 2.308594 -11.269531 C 3.074219 -11.269531 3.683594 -11.652344 3.683594 -12.488281 C 3.683594 -13.234375 3.125 -13.683594 2.308594 -13.683594 C 1.511719 -13.683594 0.9375 -13.234375 0.9375 -12.488281 C 0.9375 -11.652344 1.5625 -11.269531 2.308594 -11.269531 Z M 3.699219 0 L 3.699219 -9.96875 L 0.9375 -9.96875 L 0.9375 0 Z M 3.699219 0 "/></g></g></g><g fill="#ffffff" fill-opacity="1"><g transform="translate(59.263213, 87.266524)"><g><path d="M 3.699219 0 L 3.699219 -14.085938 L 0.9375 -14.085938 L 0.9375 0 Z M 3.699219 0 "/></g></g></g><g fill="#ffffff" fill-opacity="1"><g transform="translate(63.238952, 87.266524)"><g><path d="M 5.558594 -10.367188 C 5.089844 -10.367188 4.429688 -10.316406 3.699219 -10.246094 L 3.699219 -14.085938 L 0.9375 -14.085938 L 0.9375 0 L 3.699219 0 L 3.699219 -7.726562 C 4.324219 -7.832031 4.984375 -7.902344 5.453125 -7.902344 C 6.738281 -7.902344 7.414062 -7.433594 7.414062 -6.183594 L 7.414062 0 L 10.175781 0 L 10.175781 -6.511719 C 10.175781 -9.5 8.023438 -10.367188 5.558594 -10.367188 Z M 5.558594 -10.367188 "/></g></g></g><g fill="#ffffff" fill-opacity="1"><g transform="translate(73.690893, 87.266524)"><g><path d="M 11.027344 -4.65625 C 11.027344 -8.214844 9.082031 -10.367188 5.886719 -10.367188 C 2.726562 -10.367188 0.695312 -8.179688 0.695312 -5.070312 L 0.695312 -5.054688 C 0.695312 -1.894531 2.867188 0.261719 6.21875 0.261719 C 8.164062 0.261719 9.535156 -0.347656 10.542969 -0.972656 L 9.34375 -3.109375 C 8.613281 -2.585938 7.554688 -2.152344 6.339844 -2.152344 C 4.828125 -2.152344 3.839844 -3.125 3.558594 -4.410156 L 11.027344 -4.410156 Z M 5.871094 -8.128906 C 7.207031 -8.128906 8.007812 -7.257812 8.214844 -6.113281 L 3.578125 -6.113281 C 3.839844 -7.257812 4.671875 -8.128906 5.871094 -8.128906 Z M 5.871094 -8.128906 "/></g></g></g><g fill="#ffffff" fill-opacity="1"><g transform="translate(84.767885, 87.266524)"><g><path d="M 3.699219 0 L 3.699219 -7.292969 C 3.925781 -7.347656 5.054688 -7.433594 5.46875 -7.433594 L 6.964844 -7.433594 L 6.964844 -9.96875 L 5.019531 -9.96875 C 4.117188 -9.96875 2.398438 -9.898438 0.9375 -9.585938 L 0.9375 0 Z M 3.699219 0 "/></g></g></g><g fill="#ffffff" fill-opacity="1"><g transform="translate(91.729971, 87.266524)"><g><path d="M 3.699219 0 L 3.699219 -7.746094 C 4.253906 -7.867188 4.757812 -7.917969 5.191406 -7.917969 C 6.269531 -7.917969 6.964844 -7.46875 6.964844 -6.199219 L 6.964844 0 L 9.707031 0 L 9.707031 -6.199219 C 9.707031 -7.242188 10.019531 -7.917969 11.375 -7.917969 C 12.730469 -7.917969 13.042969 -7.242188 13.042969 -6.199219 L 13.042969 0 L 15.804688 0 L 15.804688 -6.511719 C 15.804688 -9.378906 14.222656 -10.386719 11.636719 -10.386719 C 10.195312 -10.386719 9.03125 -9.984375 8.320312 -9.046875 C 7.695312 -10.019531 6.582031 -10.386719 5.3125 -10.386719 C 4.429688 -10.386719 2.640625 -10.175781 0.9375 -9.863281 L 0.9375 0 Z M 3.699219 0 "/></g></g></g><g fill="#ffffff" fill-opacity="1"><g transform="translate(107.807358, 87.266524)"><g><path d="M 11.027344 -4.65625 C 11.027344 -8.214844 9.082031 -10.367188 5.886719 -10.367188 C 2.726562 -10.367188 0.695312 -8.179688 0.695312 -5.070312 L 0.695312 -5.054688 C 0.695312 -1.894531 2.867188 0.261719 6.21875 0.261719 C 8.164062 0.261719 9.535156 -0.347656 10.542969 -0.972656 L 9.34375 -3.109375 C 8.613281 -2.585938 7.554688 -2.152344 6.339844 -2.152344 C 4.828125 -2.152344 3.839844 -3.125 3.558594 -4.410156 L 11.027344 -4.410156 Z M 5.871094 -8.128906 C 7.207031 -8.128906 8.007812 -7.257812 8.214844 -6.113281 L 3.578125 -6.113281 C 3.839844 -7.257812 4.671875 -8.128906 5.871094 -8.128906 Z M 5.871094 -8.128906 "/></g></g></g><g fill="#00c2cb" fill-opacity="1"><g transform="translate(54.13767, 101.056506)"><g><path d="M 2.851562 0.125 C 4.515625 0.125 5.339844 -0.476562 5.339844 -1.683594 C 5.339844 -2.570312 4.757812 -3.113281 3.503906 -3.464844 L 3.105469 -3.570312 C 2.433594 -3.765625 2.160156 -3.902344 2.160156 -4.183594 C 2.160156 -4.496094 2.492188 -4.601562 3.054688 -4.601562 C 3.53125 -4.601562 4.203125 -4.496094 4.699219 -4.230469 L 5.148438 -5.3125 C 4.574219 -5.613281 3.714844 -5.796875 2.871094 -5.796875 C 1.421875 -5.796875 0.601562 -5.167969 0.601562 -4.136719 C 0.601562 -3.210938 1.128906 -2.664062 2.296875 -2.355469 L 2.820312 -2.21875 C 3.636719 -1.996094 3.824219 -1.867188 3.824219 -1.566406 C 3.824219 -1.15625 3.375 -1.070312 2.714844 -1.070312 C 2.148438 -1.070312 1.46875 -1.195312 0.816406 -1.480469 L 0.398438 -0.359375 C 1.195312 -0.0273438 1.976562 0.125 2.851562 0.125 Z M 2.851562 0.125 "/></g></g></g><g fill="#00c2cb" fill-opacity="1"><g transform="translate(59.49684, 101.056506)"><g><path d="M 4.164062 -1.519531 C 3.882812 -1.480469 3.472656 -1.449219 3.171875 -1.449219 C 2.460938 -1.449219 2.074219 -1.703125 2.074219 -2.414062 L 2.074219 -5.585938 L 0.535156 -5.585938 L 0.535156 -2.402344 C 0.535156 -0.71875 1.730469 -0.242188 3.113281 -0.242188 C 3.414062 -0.242188 3.804688 -0.273438 4.164062 -0.3125 L 4.164062 -0.105469 C 4.164062 0.582031 3.863281 0.886719 2.9375 0.886719 C 2.421875 0.886719 1.539062 0.738281 0.992188 0.476562 L 1.332031 1.945312 C 1.671875 2.101562 2.460938 2.246094 3.152344 2.246094 C 4.523438 2.246094 5.703125 1.710938 5.703125 0.0390625 L 5.703125 -5.527344 L 4.164062 -5.527344 Z M 4.164062 -1.519531 "/></g></g></g><g fill="#00c2cb" fill-opacity="1"><g transform="translate(65.361793, 101.056506)"><g><path d="M 2.851562 0.125 C 4.515625 0.125 5.339844 -0.476562 5.339844 -1.683594 C 5.339844 -2.570312 4.757812 -3.113281 3.503906 -3.464844 L 3.105469 -3.570312 C 2.433594 -3.765625 2.160156 -3.902344 2.160156 -4.183594 C 2.160156 -4.496094 2.492188 -4.601562 3.054688 -4.601562 C 3.53125 -4.601562 4.203125 -4.496094 4.699219 -4.230469 L 5.148438 -5.3125 C 4.574219 -5.613281 3.714844 -5.796875 2.871094 -5.796875 C 1.421875 -5.796875 0.601562 -5.167969 0.601562 -4.136719 C 0.601562 -3.210938 1.128906 -2.664062 2.296875 -2.355469 L 2.820312 -2.21875 C 3.636719 -1.996094 3.824219 -1.867188 3.824219 -1.566406 C 3.824219 -1.15625 3.375 -1.070312 2.714844 -1.070312 C 2.148438 -1.070312 1.46875 -1.195312 0.816406 -1.480469 L 0.398438 -0.359375 C 1.195312 -0.0273438 1.976562 0.125 2.851562 0.125 Z M 2.851562 0.125 "/></g></g></g><g fill="#00c2cb" fill-opacity="1"><g transform="translate(70.720963, 101.056506)"><g><path d="M 4.796875 0 L 4.796875 -1.429688 L 3.714844 -1.429688 C 3.054688 -1.429688 2.753906 -1.683594 2.753906 -2.304688 L 2.753906 -4.164062 L 4.785156 -4.164062 L 4.785156 -5.585938 L 2.753906 -5.585938 L 2.753906 -7.296875 L 1.207031 -7.296875 L 1.207031 -5.585938 L 0.222656 -5.585938 L 0.222656 -4.164062 L 1.207031 -4.164062 L 1.207031 -1.820312 C 1.207031 -0.601562 1.691406 0 3.027344 0 Z M 4.796875 0 "/></g></g></g><g fill="#00c2cb" fill-opacity="1"><g transform="translate(75.554899, 101.056506)"><g><path d="M 6.179688 -2.605469 C 6.179688 -4.601562 5.089844 -5.808594 3.296875 -5.808594 C 1.527344 -5.808594 0.390625 -4.582031 0.390625 -2.839844 L 0.390625 -2.832031 C 0.390625 -1.058594 1.605469 0.144531 3.484375 0.144531 C 4.574219 0.144531 5.339844 -0.195312 5.90625 -0.542969 L 5.234375 -1.742188 C 4.824219 -1.449219 4.230469 -1.207031 3.550781 -1.207031 C 2.703125 -1.207031 2.148438 -1.75 1.996094 -2.472656 L 6.179688 -2.472656 Z M 3.289062 -4.554688 C 4.039062 -4.554688 4.484375 -4.066406 4.601562 -3.425781 L 2.003906 -3.425781 C 2.148438 -4.066406 2.617188 -4.554688 3.289062 -4.554688 Z M 3.289062 -4.554688 "/></g></g></g><g fill="#00c2cb" fill-opacity="1"><g transform="translate(81.760281, 101.056506)"><g><path d="M 2.074219 0 L 2.074219 -4.339844 C 2.382812 -4.40625 2.664062 -4.4375 2.910156 -4.4375 C 3.511719 -4.4375 3.902344 -4.183594 3.902344 -3.472656 L 3.902344 0 L 5.4375 0 L 5.4375 -3.472656 C 5.4375 -4.058594 5.613281 -4.4375 6.371094 -4.4375 C 7.132812 -4.4375 7.304688 -4.058594 7.304688 -3.472656 L 7.304688 0 L 8.851562 0 L 8.851562 -3.648438 C 8.851562 -5.253906 7.96875 -5.816406 6.519531 -5.816406 C 5.710938 -5.816406 5.058594 -5.59375 4.660156 -5.070312 C 4.308594 -5.613281 3.6875 -5.816406 2.976562 -5.816406 C 2.480469 -5.816406 1.480469 -5.703125 0.523438 -5.527344 L 0.523438 0 Z M 2.074219 0 "/></g></g></g><g fill="#00c2cb" fill-opacity="1"><g transform="translate(90.766907, 101.056506)"><g><path d="M 2.851562 0.125 C 4.515625 0.125 5.339844 -0.476562 5.339844 -1.683594 C 5.339844 -2.570312 4.757812 -3.113281 3.503906 -3.464844 L 3.105469 -3.570312 C 2.433594 -3.765625 2.160156 -3.902344 2.160156 -4.183594 C 2.160156 -4.496094 2.492188 -4.601562 3.054688 -4.601562 C 3.53125 -4.601562 4.203125 -4.496094 4.699219 -4.230469 L 5.148438 -5.3125 C 4.574219 -5.613281 3.714844 -5.796875 2.871094 -5.796875 C 1.421875 -5.796875 0.601562 -5.167969 0.601562 -4.136719 C 0.601562 -3.210938 1.128906 -2.664062 2.296875 -2.355469 L 2.820312 -2.21875 C 3.636719 -1.996094 3.824219 -1.867188 3.824219 -1.566406 C 3.824219 -1.15625 3.375 -1.070312 2.714844 -1.070312 C 2.148438 -1.070312 1.46875 -1.195312 0.816406 -1.480469 L 0.398438 -0.359375 C 1.195312 -0.0273438 1.976562 0.125 2.851562 0.125 Z M 2.851562 0.125 "/></g></g></g></svg>