<svg xmlns="http://www.w3.org/2000/svg" xmlns:xlink="http://www.w3.org/1999/xlink" width="500" zoomAndPan="magnify" viewBox="0 0 375 374.999991" height="500" preserveAspectRatio="xMidYMid meet" version="1.0"><defs><g/><clipPath id="435c6ba30f"><path d="M 147.601562 109 L 177 109 L 177 151 L 147.601562 151 Z M 147.601562 109 " clip-rule="nonzero"/></clipPath><clipPath id="330f7d26ed"><path d="M 200 109 L 229.351562 109 L 229.351562 151 L 200 151 Z M 200 109 " clip-rule="nonzero"/></clipPath><clipPath id="2d14788732"><path d="M 174 98.472656 L 203 98.472656 L 203 161.472656 L 174 161.472656 Z M 174 98.472656 " clip-rule="nonzero"/></clipPath></defs><path fill="#03fa6e" d="M 173.390625 149.835938 C 172.941406 149.835938 172.496094 149.6875 172.140625 149.40625 L 149.277344 131.550781 C 148.785156 131.167969 148.503906 130.589844 148.503906 129.972656 C 148.503906 129.351562 148.785156 128.777344 149.277344 128.390625 L 172.140625 110.539062 C 172.496094 110.257812 172.941406 110.105469 173.390625 110.105469 C 174.015625 110.105469 174.601562 110.382812 174.984375 110.875 C 175.316406 111.292969 175.46875 111.820312 175.402344 112.351562 C 175.339844 112.886719 175.070312 113.363281 174.644531 113.695312 L 153.808594 129.972656 L 174.644531 146.246094 C 175.070312 146.582031 175.339844 147.058594 175.402344 147.585938 C 175.46875 148.121094 175.316406 148.644531 174.984375 149.070312 C 174.601562 149.554688 174.015625 149.835938 173.390625 149.835938 " fill-opacity="1" fill-rule="nonzero"/><g clip-path="url(#435c6ba30f)"><path fill="#004aad" d="M 173.390625 109.25 C 172.746094 109.25 172.117188 109.464844 171.609375 109.863281 L 148.742188 127.71875 C 148.042969 128.269531 147.640625 129.089844 147.640625 129.972656 C 147.640625 130.855469 148.042969 131.675781 148.742188 132.226562 L 171.609375 150.082031 C 172.113281 150.472656 172.746094 150.691406 173.390625 150.691406 C 174.285156 150.691406 175.113281 150.292969 175.660156 149.597656 C 176.140625 149 176.351562 148.25 176.261719 147.488281 C 176.167969 146.726562 175.785156 146.046875 175.179688 145.574219 L 155.199219 129.972656 L 175.179688 114.367188 C 175.785156 113.894531 176.167969 113.214844 176.261719 112.453125 C 176.351562 111.695312 176.140625 110.945312 175.660156 110.34375 C 175.113281 109.648438 174.28125 109.25 173.390625 109.25 Z M 173.390625 110.960938 C 173.738281 110.960938 174.078125 111.113281 174.304688 111.402344 C 174.707031 111.902344 174.617188 112.628906 174.113281 113.023438 L 152.410156 129.972656 L 174.113281 146.921875 C 174.617188 147.3125 174.707031 148.039062 174.304688 148.539062 C 174.078125 148.832031 173.738281 148.980469 173.390625 148.980469 C 173.140625 148.980469 172.890625 148.902344 172.675781 148.734375 L 149.808594 130.878906 C 149.53125 130.660156 149.367188 130.324219 149.367188 129.972656 C 149.367188 129.617188 149.53125 129.285156 149.808594 129.0625 L 172.675781 111.207031 C 172.886719 111.039062 173.140625 110.960938 173.390625 110.960938 " fill-opacity="1" fill-rule="nonzero"/></g><path fill="#03fa6e" d="M 203.558594 149.835938 C 202.933594 149.835938 202.355469 149.554688 201.964844 149.070312 C 201.277344 148.199219 201.429688 146.933594 202.308594 146.246094 L 223.148438 129.972656 L 202.308594 113.695312 C 201.429688 113.007812 201.277344 111.742188 201.964844 110.875 C 202.355469 110.382812 202.933594 110.105469 203.558594 110.105469 C 204.011719 110.105469 204.457031 110.257812 204.8125 110.539062 L 227.675781 128.390625 C 228.167969 128.777344 228.445312 129.351562 228.445312 129.972656 C 228.445312 130.589844 228.167969 131.167969 227.671875 131.550781 L 204.8125 149.40625 C 204.457031 149.6875 204.011719 149.835938 203.558594 149.835938 " fill-opacity="1" fill-rule="nonzero"/><g clip-path="url(#330f7d26ed)"><path fill="#004aad" d="M 203.558594 109.25 C 202.667969 109.25 201.84375 109.648438 201.289062 110.34375 C 200.304688 111.585938 200.519531 113.390625 201.773438 114.367188 L 221.75 129.972656 L 201.773438 145.574219 C 200.519531 146.550781 200.304688 148.359375 201.289062 149.597656 C 201.84375 150.292969 202.667969 150.691406 203.558594 150.691406 C 204.203125 150.691406 204.835938 150.472656 205.34375 150.082031 L 228.207031 132.226562 C 228.910156 131.675781 229.308594 130.855469 229.308594 129.972656 C 229.308594 129.089844 228.910156 128.269531 228.210938 127.71875 L 205.347656 109.863281 C 204.839844 109.464844 204.203125 109.25 203.558594 109.25 Z M 203.558594 110.960938 C 203.8125 110.960938 204.066406 111.039062 204.277344 111.207031 L 227.144531 129.0625 C 227.421875 129.285156 227.585938 129.617188 227.585938 129.972656 C 227.585938 130.324219 227.421875 130.660156 227.144531 130.878906 L 204.277344 148.734375 C 204.066406 148.902344 203.8125 148.980469 203.558594 148.980469 C 203.214844 148.980469 202.875 148.832031 202.644531 148.539062 C 202.25 148.039062 202.335938 147.3125 202.839844 146.921875 L 224.542969 129.972656 L 202.839844 113.023438 C 202.335938 112.628906 202.25 111.902344 202.644531 111.402344 C 202.875 111.113281 203.21875 110.960938 203.558594 110.960938 " fill-opacity="1" fill-rule="nonzero"/></g><path fill="#03fa6e" d="M 177.113281 160.613281 C 176.863281 160.613281 176.617188 160.5625 176.382812 160.476562 C 175.878906 160.28125 175.480469 159.902344 175.261719 159.414062 C 175.042969 158.921875 175.03125 158.375 175.222656 157.875 L 197.554688 100.613281 C 197.855469 99.847656 198.613281 99.332031 199.441406 99.332031 C 199.691406 99.332031 199.941406 99.378906 200.175781 99.46875 C 201.214844 99.867188 201.734375 101.035156 201.332031 102.070312 L 179.003906 159.328125 C 178.703125 160.09375 177.941406 160.613281 177.113281 160.613281 " fill-opacity="1" fill-rule="nonzero"/><g clip-path="url(#2d14788732)"><path fill="#004aad" d="M 199.441406 98.476562 C 198.257812 98.476562 197.175781 99.214844 196.75 100.308594 L 174.421875 157.566406 C 174.144531 158.28125 174.160156 159.058594 174.472656 159.761719 C 174.785156 160.457031 175.351562 161 176.074219 161.273438 C 176.40625 161.402344 176.753906 161.46875 177.113281 161.46875 C 178.296875 161.46875 179.378906 160.730469 179.808594 159.636719 L 202.136719 102.378906 C 202.710938 100.902344 201.96875 99.238281 200.484375 98.671875 C 200.152344 98.539062 199.800781 98.476562 199.441406 98.476562 Z M 199.441406 100.1875 C 199.582031 100.1875 199.722656 100.214844 199.863281 100.265625 C 200.460938 100.496094 200.757812 101.164062 200.527344 101.757812 L 178.195312 159.015625 C 178.019531 159.476562 177.578125 159.757812 177.113281 159.757812 C 176.972656 159.757812 176.832031 159.730469 176.691406 159.675781 C 176.09375 159.449219 175.796875 158.777344 176.03125 158.183594 L 198.359375 100.925781 C 198.539062 100.46875 198.976562 100.1875 199.441406 100.1875 " fill-opacity="1" fill-rule="nonzero"/></g><g fill="#ffffff" fill-opacity="1"><g transform="translate(77.711799, 218.1663)"><g><path d="M 19.839844 -13.894531 L 27.050781 -13.894531 L 27.050781 -7.511719 C 25.050781 -6.382812 22.792969 -5.816406 20.40625 -5.816406 C 14.066406 -5.816406 8.902344 -9.464844 8.902344 -17.585938 L 8.902344 -17.671875 C 8.902344 -25.832031 14.066406 -29.4375 20.40625 -29.4375 C 24.183594 -29.4375 27.65625 -28.351562 30.261719 -26.484375 L 32.910156 -32.433594 C 28.65625 -34.777344 24.746094 -35.820312 20.234375 -35.820312 C 9.292969 -35.820312 1.78125 -28.4375 1.78125 -17.671875 L 1.78125 -17.585938 C 1.78125 -6.859375 9.292969 0.5625 20.234375 0.5625 C 24.660156 0.5625 30.089844 -0.695312 33.519531 -2.953125 L 33.519531 -19.363281 L 19.839844 -19.363281 Z M 19.839844 -13.894531 "/></g></g></g><g fill="#ffffff" fill-opacity="1"><g transform="translate(112.045419, 218.1663)"><g><path d="M 13.894531 0.695312 C 16.410156 0.695312 21.316406 0.128906 25.441406 -0.609375 L 25.441406 -24.921875 L 18.582031 -24.921875 L 18.582031 -5.644531 C 16.976562 -5.339844 15.414062 -5.210938 14.199219 -5.210938 C 10.941406 -5.210938 9.246094 -6.339844 9.246094 -9.507812 L 9.246094 -24.921875 L 2.34375 -24.921875 L 2.34375 -8.945312 C 2.34375 -1.476562 7.726562 0.695312 13.894531 0.695312 Z M 13.894531 0.695312 "/></g></g></g><g fill="#ffffff" fill-opacity="1"><g transform="translate(138.218682, 218.1663)"><g><path d="M 5.773438 -28.179688 C 7.683594 -28.179688 9.203125 -29.132812 9.203125 -31.21875 C 9.203125 -33.085938 7.816406 -34.214844 5.773438 -34.214844 C 3.777344 -34.214844 2.34375 -33.085938 2.34375 -31.21875 C 2.34375 -29.132812 3.90625 -28.179688 5.773438 -28.179688 Z M 9.246094 0 L 9.246094 -24.921875 L 2.34375 -24.921875 L 2.34375 0 Z M 9.246094 0 "/></g></g></g><g fill="#ffffff" fill-opacity="1"><g transform="translate(148.15803, 218.1663)"><g><path d="M 9.246094 0 L 9.246094 -35.210938 L 2.34375 -35.210938 L 2.34375 0 Z M 9.246094 0 "/></g></g></g><g fill="#ffffff" fill-opacity="1"><g transform="translate(158.097377, 218.1663)"><g><path d="M 13.894531 -25.921875 C 12.722656 -25.921875 11.070312 -25.789062 9.246094 -25.617188 L 9.246094 -35.210938 L 2.34375 -35.210938 L 2.34375 0 L 9.246094 0 L 9.246094 -19.320312 C 10.8125 -19.582031 12.460938 -19.753906 13.632812 -19.753906 C 16.847656 -19.753906 18.539062 -18.582031 18.539062 -15.457031 L 18.539062 0 L 25.441406 0 L 25.441406 -16.28125 C 25.441406 -23.75 20.058594 -25.921875 13.894531 -25.921875 Z M 13.894531 -25.921875 "/></g></g></g><g fill="#ffffff" fill-opacity="1"><g transform="translate(184.22723, 218.1663)"><g><path d="M 27.570312 -11.636719 C 27.570312 -20.535156 22.707031 -25.921875 14.71875 -25.921875 C 6.816406 -25.921875 1.738281 -20.449219 1.738281 -12.679688 L 1.738281 -12.632812 C 1.738281 -4.734375 7.164062 0.652344 15.542969 0.652344 C 20.40625 0.652344 23.835938 -0.867188 26.355469 -2.429688 L 23.359375 -7.773438 C 21.535156 -6.46875 18.886719 -5.382812 15.847656 -5.382812 C 12.070312 -5.382812 9.59375 -7.816406 8.902344 -11.027344 L 27.570312 -11.027344 Z M 14.675781 -20.320312 C 18.019531 -20.320312 20.015625 -18.148438 20.535156 -15.28125 L 8.945312 -15.28125 C 9.59375 -18.148438 11.679688 -20.320312 14.675781 -20.320312 Z M 14.675781 -20.320312 "/></g></g></g><g fill="#ffffff" fill-opacity="1"><g transform="translate(211.91971, 218.1663)"><g><path d="M 9.246094 0 L 9.246094 -18.234375 C 9.8125 -18.367188 12.632812 -18.582031 13.675781 -18.582031 L 17.410156 -18.582031 L 17.410156 -24.921875 L 12.546875 -24.921875 C 10.289062 -24.921875 5.992188 -24.746094 2.34375 -23.964844 L 2.34375 0 Z M 9.246094 0 "/></g></g></g><g fill="#ffffff" fill-opacity="1"><g transform="translate(229.324925, 218.1663)"><g><path d="M 9.246094 0 L 9.246094 -19.363281 C 10.636719 -19.667969 11.894531 -19.796875 12.980469 -19.796875 C 15.671875 -19.796875 17.410156 -18.667969 17.410156 -15.5 L 17.410156 0 L 24.269531 0 L 24.269531 -15.5 C 24.269531 -18.105469 25.050781 -19.796875 28.4375 -19.796875 C 31.824219 -19.796875 32.605469 -18.105469 32.605469 -15.5 L 32.605469 0 L 39.511719 0 L 39.511719 -16.28125 C 39.511719 -23.445312 35.558594 -25.964844 29.089844 -25.964844 C 25.484375 -25.964844 22.578125 -24.964844 20.796875 -22.621094 C 19.234375 -25.050781 16.457031 -25.964844 13.285156 -25.964844 C 11.070312 -25.964844 6.597656 -25.441406 2.34375 -24.660156 L 2.34375 0 Z M 9.246094 0 "/></g></g></g><g fill="#ffffff" fill-opacity="1"><g transform="translate(269.518392, 218.1663)"><g><path d="M 27.570312 -11.636719 C 27.570312 -20.535156 22.707031 -25.921875 14.71875 -25.921875 C 6.816406 -25.921875 1.738281 -20.449219 1.738281 -12.679688 L 1.738281 -12.632812 C 1.738281 -4.734375 7.164062 0.652344 15.542969 0.652344 C 20.40625 0.652344 23.835938 -0.867188 26.355469 -2.429688 L 23.359375 -7.773438 C 21.535156 -6.46875 18.886719 -5.382812 15.847656 -5.382812 C 12.070312 -5.382812 9.59375 -7.816406 8.902344 -11.027344 L 27.570312 -11.027344 Z M 14.675781 -20.320312 C 18.019531 -20.320312 20.015625 -18.148438 20.535156 -15.28125 L 8.945312 -15.28125 C 9.59375 -18.148438 11.679688 -20.320312 14.675781 -20.320312 Z M 14.675781 -20.320312 "/></g></g></g><g fill="#00c2cb" fill-opacity="1"><g transform="translate(135.344175, 252.641249)"><g><path d="M 7.125 0.316406 C 11.285156 0.316406 13.351562 -1.191406 13.351562 -4.207031 C 13.351562 -6.421875 11.894531 -7.78125 8.757812 -8.660156 L 7.757812 -8.925781 C 6.082031 -9.414062 5.398438 -9.753906 5.398438 -10.457031 C 5.398438 -11.238281 6.226562 -11.503906 7.636719 -11.503906 C 8.828125 -11.503906 10.507812 -11.238281 11.746094 -10.582031 L 12.867188 -13.28125 C 11.429688 -14.035156 9.292969 -14.496094 7.175781 -14.496094 C 3.550781 -14.496094 1.507812 -12.914062 1.507812 -10.335938 C 1.507812 -8.027344 2.820312 -6.664062 5.738281 -5.886719 L 7.054688 -5.546875 C 9.097656 -4.984375 9.558594 -4.667969 9.558594 -3.914062 C 9.558594 -2.894531 8.441406 -2.675781 6.785156 -2.675781 C 5.375 -2.675781 3.671875 -2.992188 2.042969 -3.695312 L 0.996094 -0.898438 C 2.992188 -0.0742188 4.9375 0.316406 7.125 0.316406 Z M 7.125 0.316406 "/></g></g></g><g fill="#00c2cb" fill-opacity="1"><g transform="translate(148.7421, 252.641249)"><g><path d="M 10.410156 -3.792969 C 9.703125 -3.695312 8.683594 -3.625 7.929688 -3.625 C 6.152344 -3.625 5.179688 -4.257812 5.179688 -6.03125 L 5.179688 -13.960938 L 1.335938 -13.960938 L 1.335938 -6.007812 C 1.335938 -1.800781 4.328125 -0.609375 7.78125 -0.609375 C 8.539062 -0.609375 9.511719 -0.679688 10.410156 -0.777344 L 10.410156 -0.265625 C 10.410156 1.460938 9.65625 2.214844 7.34375 2.214844 C 6.054688 2.214844 3.84375 1.847656 2.480469 1.191406 L 3.332031 4.863281 C 4.183594 5.253906 6.152344 5.617188 7.878906 5.617188 C 11.308594 5.617188 14.253906 4.28125 14.253906 0.0976562 L 14.253906 -13.816406 L 10.410156 -13.816406 Z M 10.410156 -3.792969 "/></g></g></g><g fill="#00c2cb" fill-opacity="1"><g transform="translate(163.404483, 252.641249)"><g><path d="M 7.125 0.316406 C 11.285156 0.316406 13.351562 -1.191406 13.351562 -4.207031 C 13.351562 -6.421875 11.894531 -7.78125 8.757812 -8.660156 L 7.757812 -8.925781 C 6.082031 -9.414062 5.398438 -9.753906 5.398438 -10.457031 C 5.398438 -11.238281 6.226562 -11.503906 7.636719 -11.503906 C 8.828125 -11.503906 10.507812 -11.238281 11.746094 -10.582031 L 12.867188 -13.28125 C 11.429688 -14.035156 9.292969 -14.496094 7.175781 -14.496094 C 3.550781 -14.496094 1.507812 -12.914062 1.507812 -10.335938 C 1.507812 -8.027344 2.820312 -6.664062 5.738281 -5.886719 L 7.054688 -5.546875 C 9.097656 -4.984375 9.558594 -4.667969 9.558594 -3.914062 C 9.558594 -2.894531 8.441406 -2.675781 6.785156 -2.675781 C 5.375 -2.675781 3.671875 -2.992188 2.042969 -3.695312 L 0.996094 -0.898438 C 2.992188 -0.0742188 4.9375 0.316406 7.125 0.316406 Z M 7.125 0.316406 "/></g></g></g><g fill="#00c2cb" fill-opacity="1"><g transform="translate(176.802409, 252.641249)"><g><path d="M 11.992188 0 L 11.992188 -3.574219 L 9.292969 -3.574219 C 7.636719 -3.574219 6.882812 -4.207031 6.882812 -5.765625 L 6.882812 -10.410156 L 11.964844 -10.410156 L 11.964844 -13.960938 L 6.882812 -13.960938 L 6.882812 -18.242188 L 3.015625 -18.242188 L 3.015625 -13.960938 L 0.558594 -13.960938 L 0.558594 -10.410156 L 3.015625 -10.410156 L 3.015625 -4.546875 C 3.015625 -1.507812 4.230469 0 7.5625 0 Z M 11.992188 0 "/></g></g></g><g fill="#00c2cb" fill-opacity="1"><g transform="translate(188.887249, 252.641249)"><g><path d="M 15.445312 -6.519531 C 15.445312 -11.503906 12.71875 -14.519531 8.246094 -14.519531 C 3.820312 -14.519531 0.972656 -11.457031 0.972656 -7.101562 L 0.972656 -7.078125 C 0.972656 -2.652344 4.011719 0.363281 8.707031 0.363281 C 11.429688 0.363281 13.351562 -0.488281 14.765625 -1.363281 L 13.085938 -4.355469 C 12.0625 -3.625 10.582031 -3.015625 8.878906 -3.015625 C 6.761719 -3.015625 5.375 -4.378906 4.984375 -6.179688 L 15.445312 -6.179688 Z M 8.222656 -11.382812 C 10.09375 -11.382812 11.210938 -10.167969 11.503906 -8.5625 L 5.011719 -8.5625 C 5.375 -10.167969 6.542969 -11.382812 8.222656 -11.382812 Z M 8.222656 -11.382812 "/></g></g></g><g fill="#00c2cb" fill-opacity="1"><g transform="translate(204.400704, 252.641249)"><g><path d="M 5.179688 0 L 5.179688 -10.847656 C 5.960938 -11.019531 6.664062 -11.089844 7.273438 -11.089844 C 8.78125 -11.089844 9.753906 -10.457031 9.753906 -8.683594 L 9.753906 0 L 13.597656 0 L 13.597656 -8.683594 C 13.597656 -10.140625 14.035156 -11.089844 15.929688 -11.089844 C 17.828125 -11.089844 18.265625 -10.140625 18.265625 -8.683594 L 18.265625 0 L 22.132812 0 L 22.132812 -9.121094 C 22.132812 -13.132812 19.921875 -14.542969 16.296875 -14.542969 C 14.277344 -14.542969 12.648438 -13.984375 11.652344 -12.671875 C 10.773438 -14.035156 9.21875 -14.542969 7.441406 -14.542969 C 6.203125 -14.542969 3.695312 -14.253906 1.3125 -13.816406 L 1.3125 0 Z M 5.179688 0 "/></g></g></g><g fill="#00c2cb" fill-opacity="1"><g transform="translate(226.917268, 252.641249)"><g><path d="M 7.125 0.316406 C 11.285156 0.316406 13.351562 -1.191406 13.351562 -4.207031 C 13.351562 -6.421875 11.894531 -7.78125 8.757812 -8.660156 L 7.757812 -8.925781 C 6.082031 -9.414062 5.398438 -9.753906 5.398438 -10.457031 C 5.398438 -11.238281 6.226562 -11.503906 7.636719 -11.503906 C 8.828125 -11.503906 10.507812 -11.238281 11.746094 -10.582031 L 12.867188 -13.28125 C 11.429688 -14.035156 9.292969 -14.496094 7.175781 -14.496094 C 3.550781 -14.496094 1.507812 -12.914062 1.507812 -10.335938 C 1.507812 -8.027344 2.820312 -6.664062 5.738281 -5.886719 L 7.054688 -5.546875 C 9.097656 -4.984375 9.558594 -4.667969 9.558594 -3.914062 C 9.558594 -2.894531 8.441406 -2.675781 6.785156 -2.675781 C 5.375 -2.675781 3.671875 -2.992188 2.042969 -3.695312 L 0.996094 -0.898438 C 2.992188 -0.0742188 4.9375 0.316406 7.125 0.316406 Z M 7.125 0.316406 "/></g></g></g></svg>