<?xml version="1.0" standalone="no"?>
<!DOCTYPE svg PUBLIC "-//W3C//DTD SVG 20010904//EN"
 "http://www.w3.org/TR/2001/REC-SVG-20010904/DTD/svg10.dtd">
<svg version="1.0" xmlns="http://www.w3.org/2000/svg"
 width="512.000000pt" height="512.000000pt" viewBox="0 0 512.000000 512.000000"
 preserveAspectRatio="xMidYMid meet">

<g transform="translate(0.000000,512.000000) scale(0.100000,-0.100000)"
fill="#000000" stroke="none">
<path d="M1997 5113 c-2 -5 -17 -74 -33 -155 l-28 -147 -105 -36 c-58 -20
-146 -57 -194 -81 -48 -24 -92 -44 -98 -44 -5 0 -67 38 -137 85 l-127 85 -282
-282 -281 -281 87 -131 88 -131 -53 -110 c-30 -60 -66 -149 -81 -197 l-28 -87
-70 -15 c-38 -9 -108 -24 -155 -33 l-85 -18 -3 -397 -2 -397 57 -11 c32 -6
102 -21 157 -33 l98 -22 39 -108 c21 -60 58 -148 83 -197 l44 -88 -84 -126
c-46 -69 -84 -131 -84 -138 0 -13 539 -558 552 -558 4 0 66 38 138 85 l131 85
82 -42 c45 -23 133 -60 196 -82 l115 -41 31 -150 31 -150 399 0 399 0 31 150
31 150 115 41 c62 22 151 60 197 83 79 39 83 41 107 25 l24 -16 4 -631 c3
-703 1 -674 73 -784 44 -66 132 -134 207 -159 76 -26 205 -24 279 5 108 42
196 129 240 239 l23 57 5 830 c5 747 7 833 22 865 24 51 53 81 143 146 141
103 240 216 310 354 170 336 117 749 -131 1029 l-66 74 53 53 53 54 -46 95
-47 94 99 33 100 32 0 227 0 228 -99 32 -99 33 48 96 49 97 -160 159 -159 159
-95 -48 c-67 -33 -97 -43 -100 -35 -3 7 -18 51 -33 98 l-29 85 -226 3 -225 2
-32 -97 c-18 -54 -34 -99 -35 -101 -2 -2 -46 18 -99 45 l-96 48 -124 -124
-124 -123 -64 21 -64 21 -30 153 -29 152 -397 3 c-218 1 -399 -1 -401 -5z
m673 -220 c7 -32 19 -94 28 -138 l17 -79 80 -23 c148 -42 163 -50 190 -102
l23 -47 -99 -33 -99 -32 0 -65 c0 -35 -1 -64 -3 -64 -1 0 -47 11 -101 25 -341
87 -699 28 -986 -161 -449 -296 -656 -836 -520 -1354 180 -686 913 -1081 1586
-855 93 31 220 94 296 145 32 22 63 40 69 40 24 0 100 -75 124 -123 21 -43 25
-65 25 -139 l0 -88 -23 11 c-21 9 -40 2 -138 -50 -122 -64 -238 -110 -353
-140 l-71 -18 -29 -142 -29 -141 -262 0 -262 0 -29 141 -30 142 -70 18 c-115
30 -231 76 -356 142 l-117 61 -117 -78 -117 -78 -183 183 c-101 101 -184 187
-184 191 0 5 34 60 76 123 l76 114 -44 78 c-73 125 -129 266 -168 420 -12 46
1 41 -197 79 l-93 18 0 263 0 263 22 5 c13 3 75 16 138 28 l115 23 13 44 c45
151 69 217 117 315 30 61 63 126 75 146 l22 36 -76 117 c-42 64 -76 120 -76
124 0 4 82 89 183 190 l182 182 120 -80 119 -79 43 24 c129 77 305 149 463
191 38 11 33 -4 80 227 l11 57 264 0 264 0 11 -57z m1185 -34 l30 -91 50 -23
50 -22 89 44 89 45 76 -76 75 -76 -43 -87 -43 -88 20 -50 19 -50 97 -34 96
-33 0 -107 0 -107 -90 -29 c-99 -32 -98 -31 -125 -93 l-19 -43 44 -90 c42 -85
43 -90 27 -107 -17 -16 -19 -16 -50 2 -45 26 -183 96 -191 96 -3 0 -6 -36 -6
-80 0 -82 -4 -89 -40 -70 -13 7 -33 4 -72 -11 l-54 -20 -30 -92 -30 -92 -109
0 -109 0 -30 91 -29 92 -53 22 c-41 16 -57 19 -73 11 -11 -6 -22 -11 -25 -11
-3 0 -6 36 -6 80 0 53 -4 80 -11 80 -7 0 -61 -26 -120 -57 -103 -54 -110 -56
-126 -40 -16 16 -15 22 26 105 l44 89 -20 53 -20 54 -94 31 -94 32 -3 104 -3
105 88 28 c48 16 93 32 99 37 6 5 19 30 29 56 l18 46 -44 89 -43 88 75 76 76
76 89 -45 89 -45 51 23 c51 23 52 23 79 106 15 46 30 87 32 92 2 4 53 7 112 7
l107 0 29 -91z m-1290 -663 c44 -8 117 -26 163 -41 l82 -26 0 -72 0 -73 100
-32 99 -33 -47 -94 -46 -95 54 -55 c51 -52 53 -56 37 -72 -16 -16 -20 -14 -69
39 -101 106 -220 177 -358 215 -101 28 -292 25 -390 -5 -209 -66 -367 -199
-459 -386 -58 -118 -75 -191 -75 -326 0 -138 23 -233 87 -355 51 -98 180 -231
277 -288 223 -129 526 -130 743 -2 l57 34 17 -27 c55 -91 91 -141 132 -185
l46 -49 -30 -24 c-44 -36 -200 -109 -280 -132 -211 -62 -445 -59 -645 8 -475
157 -786 636 -731 1126 48 424 324 771 722 908 158 54 355 70 514 42z m-21
-502 c110 -27 228 -105 306 -204 l31 -39 -34 -58 c-43 -74 -83 -180 -102 -268
-17 -80 -19 -278 -5 -345 6 -25 12 -55 15 -67 12 -51 -175 -137 -321 -149
-325 -27 -614 241 -614 569 0 100 15 167 55 252 123 255 387 377 669 309z
m925 -917 l248 -148 246 148 247 148 2 325 3 325 90 -90 c170 -171 244 -355
232 -580 -13 -259 -131 -460 -364 -624 -125 -88 -182 -172 -202 -301 -6 -36
-11 -161 -11 -277 l0 -213 -162 -2 -163 -3 -3 -82 -3 -83 166 0 165 0 0 -245
0 -245 -162 -2 -163 -3 -3 -82 -3 -83 166 0 166 0 -3 -163 c-3 -162 -3 -164
-33 -213 -83 -133 -272 -154 -384 -43 -67 68 -71 91 -71 441 l0 308 165 0 165
0 0 85 0 85 -165 0 -165 0 0 245 0 245 165 0 165 0 0 85 0 85 -165 0 -165 0 0
65 c0 180 -63 293 -231 411 -139 97 -244 230 -296 372 -70 189 -68 372 6 557
43 106 91 177 185 269 l81 80 3 -325 3 -324 248 -148z m-10 623 l32 -100 224
0 223 0 33 98 c17 53 33 99 35 100 1 2 12 1 23 -3 20 -6 21 -12 21 -240 l0
-234 -158 -95 c-87 -52 -163 -96 -169 -98 -6 -2 -83 40 -172 92 l-160 95 -1
236 c0 130 3 239 7 242 18 19 32 -2 62 -93z"/>
<path d="M2312 4708 l3 -83 80 0 80 0 3 83 3 82 -86 0 -86 0 3 -82z"/>
<path d="M1227 4302 l-57 -58 58 -57 58 -57 57 58 57 58 -58 57 -58 57 -57
-58z"/>
<path d="M740 3140 l0 -80 85 0 85 0 0 80 0 80 -85 0 -85 0 0 -80z"/>
<path d="M1227 2082 l-57 -58 58 -57 58 -57 59 60 59 60 -54 55 c-30 30 -57
55 -60 55 -3 0 -31 -26 -63 -58z"/>
<path d="M2310 1570 l0 -80 85 0 85 0 0 80 0 80 -85 0 -85 0 0 -80z"/>
<path d="M3584 4600 c-257 -91 -358 -390 -208 -616 206 -310 680 -205 745 165
35 194 -93 397 -287 456 -67 20 -186 18 -250 -5z m243 -169 c225 -114 146
-461 -105 -464 -68 0 -133 26 -180 72 -46 47 -64 86 -70 156 -8 110 57 211
162 249 53 20 140 14 193 -13z"/>
<path d="M3682 484 c-52 -21 -60 -92 -16 -131 35 -32 70 -29 106 7 25 26 29
36 24 62 -8 39 -20 54 -55 66 -19 7 -37 6 -59 -4z"/>
</g>
</svg>
